<?xml version="1.0" encoding="iso-8859-1"?>
<!-- Uploaded to: SVG Repo, www.svgrepo.com, Generator: SVG Repo Mixer Tools -->
<svg version="1.1" id="Layer_1" xmlns="http://www.w3.org/2000/svg" xmlns:xlink="http://www.w3.org/1999/xlink" 
	 viewBox="0 0 511.999 511.999" xml:space="preserve">
<g>
	<rect x="71.376" y="55.34" style="fill:#FFA81E;" width="37.522" height="447.678"/>
	<rect x="399.696" y="55.34" style="fill:#FFA81E;" width="37.522" height="447.678"/>
	<rect x="55.159" y="8.976" style="fill:#FFA81E;" width="405.203" height="46.366"/>
</g>
<polygon style="fill:#F8F8F8;" points="335.771,183.46 161.901,245.281 161.901,130.913 335.771,130.913 "/>
<rect x="161.902" y="130.919" style="fill:#E1E1E4;" width="173.872" height="23.061"/>
<polygon style="fill:#FFFFFF;" points="161.901,245.281 335.772,183.46 335.772,152.973 161.901,214.793 "/>
<path style="fill:#FFD92D;" d="M302.427,401.857c0.004,0.242,0.069,0.466,0.069,0.709c0,26.46-21.58,47.911-48.199,47.911
	c-26.617,0-48.199-21.45-48.199-47.911c0-0.243,0.069-0.467,0.073-0.709h-97.249v101.166h290.75V401.857H302.427z"/>
<path style="fill:#FFA81E;" d="M206.167,402.051c-0.004-0.242-0.069-0.466-0.069-0.709c0-26.46,21.58-47.911,48.199-47.911
	c26.617,0,48.199,21.45,48.199,47.911c0,0.243-0.069,0.467-0.073,0.709h97.249V300.884h-290.75v101.166H206.167z"/>
<g>
	<path style="fill:#1C2042;" d="M458.599,0H53.397c-4.958,0-8.976,4.018-8.976,8.976v46.366c0,4.958,4.018,8.976,8.976,8.976h8.999
		v438.705c0,4.958,4.018,8.976,8.976,8.976h37.522c0.09,0,0.178-0.011,0.268-0.013c0.09,0.002,0.177,0.013,0.268,0.013h289.009
		c0.212,0,0.42-0.017,0.628-0.031c0.208,0.014,0.416,0.031,0.628,0.031h37.523c4.958,0,8.976-4.018,8.976-8.976V277.143
		c0-4.958-4.018-8.976-8.976-8.976c-4.958,0-8.976,4.018-8.976,8.976v216.903h-19.571V65.289h19.571v82.6
		c0,4.958,4.018,8.976,8.976,8.976c4.958,0,8.976-4.018,8.976-8.976V64.318h12.406c4.958,0,8.976-4.018,8.976-8.976V8.976
		C467.575,4.018,463.557,0,458.599,0z M327.38,139.889v37.236l-155.918,55.436v-92.674H327.38V139.889z M162.486,121.937
		c-4.958,0-8.976,4.018-8.976,8.976v114.368c0,2.918,1.418,5.653,3.801,7.334c1.534,1.082,3.346,1.642,5.176,1.642
		c1.011,0,2.027-0.171,3.006-0.519l173.87-61.82c3.578-1.272,5.968-4.659,5.968-8.457v-52.547c0-4.958-4.018-8.976-8.976-8.976
		h-79.633V100.2l133.995-0.06v191.767H117.869V100.264l120.903-0.054v21.728h-76.286V121.937z M215.043,402.594
		c0.014-0.187,0.024-0.389,0.028-0.607c0.006-0.389-0.023-0.773-0.067-1.155c0.274-21.235,17.631-38.425,38.931-38.425
		c21.303,0,38.663,17.198,38.931,38.44c-0.018,0.154-0.031,0.31-0.041,0.466c-0.013,0.187-0.024,0.389-0.028,0.608
		c-0.006,0.389,0.023,0.773,0.067,1.155c-0.274,21.235-17.631,38.425-38.93,38.425c-21.303,0-38.664-17.198-38.932-38.44
		C215.019,402.905,215.033,402.751,215.043,402.594z M253.933,344.455c-28.494,0-52.157,21.057-56.255,48.426h-79.274v-83.021
		h271.056v83.021h-79.274C306.089,365.511,282.426,344.455,253.933,344.455z M99.917,494.048h-19.57V65.289h19.57V494.048z
		 M118.404,494.048v-83.021h79.274c4.098,27.37,27.761,48.426,56.255,48.426c28.492,0,52.156-21.057,56.253-48.426h79.274v83.021
		H118.404z M390.717,82.188l-272.848,0.123V64.318h272.848V82.188z M449.623,46.366H62.373V17.952h387.25V46.366z"/>
	<path style="fill:#1C2042;" d="M437.217,183.593c-4.958,0-8.976,4.018-8.976,8.976v11.968c0,4.958,4.018,8.976,8.976,8.976
		s8.976-4.018,8.976-8.976v-11.968C446.193,187.611,442.174,183.593,437.217,183.593z"/>
</g>
</svg>